<svg xmlns="http://www.w3.org/2000/svg" width="596" height="150" viewBox="0 0 596 150"><rect width="100%" height="100%" fill="#DDDDDD"/><path fill="#999999" d="m143.965 56.29-1.91 11.28q1.8-.37 3.45-.54 1.65-.17 3.19-.17 4.27 0 7.54 1.27 3.26 1.28 5.47 3.53t3.34 5.27q1.12 3.02 1.12 6.5 0 4.32-1.52 7.88-1.52 3.56-4.22 6.09-2.69 2.54-6.39 3.92-3.69 1.39-8.04 1.39-2.55 0-4.84-.53-2.29-.52-4.29-1.4-2.01-.88-3.72-2.03-1.7-1.14-3.05-2.41l2.85-3.94q.9-1.28 2.36-1.28.94 0 1.91.6.98.6 2.23 1.32 1.26.71 2.97 1.31 1.7.6 4.1.6 2.55 0 4.5-.83 1.95-.82 3.25-2.3 1.29-1.49 1.95-3.53.65-2.04.65-4.44 0-4.43-2.57-6.92-2.56-2.5-7.59-2.5-3.86 0-7.91 1.43l-5.78-1.65 4.5-26.33h26.78v3.94q0 1.99-1.24 3.23t-4.2 1.24h-14.89Zm38.74 7.87q0 4.54 2.34 6.92 2.35 2.38 6.66 2.38 2.25 0 4.01-.71 1.77-.71 2.96-1.95 1.21-1.24 1.82-2.93.62-1.68.62-3.64 0-2.21-.67-3.95-.68-1.74-1.91-2.94-1.24-1.21-2.95-1.84-1.7-.64-3.73-.64-2.1 0-3.79.69-1.68.7-2.89 1.93-1.19 1.24-1.83 2.95-.64 1.7-.64 3.73Zm-4.54 37.95 16.84-21.04q.64-.78 1.2-1.53.56-.75 1.09-1.5-1.88 1.19-4.13 1.81-2.25.62-4.72.62-2.81 0-5.52-.97-2.69-.98-4.79-2.95-2.1-1.96-3.4-4.87-1.29-2.91-1.29-6.81 0-3.64 1.35-6.82 1.35-3.19 3.79-5.59 2.43-2.4 5.84-3.79 3.42-1.38 7.54-1.38 4.17 0 7.48 1.31 3.32 1.31 5.67 3.67 2.34 2.36 3.6 5.67 1.25 3.29 1.25 7.23 0 2.52-.43 4.77-.43 2.25-1.22 4.33t-1.91 4.07q-1.13 1.98-2.51 3.93l-12.41 17.7q-.64.9-1.92 1.52-1.27.62-2.89.62h-8.51Zm71.33-54.23-16.09 19.69-1.87 2.33q1.57-.79 3.39-1.22 1.82-.43 3.92-.43 3.07 0 5.98 1.01 2.91 1.01 5.12 3.06 2.21 2.04 3.56 5.08 1.35 3.03 1.35 7.08 0 3.79-1.39 7.11-1.38 3.32-3.9 5.8-2.51 2.47-6.05 3.9-3.55 1.42-7.82 1.42-4.35 0-7.8-1.39-3.45-1.38-5.89-3.88-2.44-2.49-3.73-6-1.29-3.5-1.29-7.78 0-3.82 1.55-7.86 1.56-4.03 4.82-8.38l12.94-17.36q.67-.9 1.97-1.54 1.29-.64 2.98-.64h8.25Zm-13.99 47.26q2.21 0 4.07-.75 1.85-.75 3.19-2.1 1.33-1.35 2.08-3.17.75-1.82.75-3.96 0-2.32-.71-4.18-.72-1.86-2.03-3.15-1.31-1.29-3.15-1.97-1.84-.68-4.05-.68t-4.01.75q-1.8.75-3.08 2.09-1.27 1.33-1.98 3.15-.72 1.81-.72 3.92 0 2.25.62 4.1.62 1.86 1.84 3.17 1.22 1.31 3.02 2.04 1.8.74 4.16.74Zm79.5-5.44-4.91 4.84-12.71-12.72-12.83 12.79-4.91-4.84 12.82-12.86-12.22-12.22 4.87-4.88 12.23 12.23 12.15-12.16 4.95 4.88-12.19 12.19 12.75 12.75Zm51.34 5.47h9.75v6.94h-30v-6.94h10.99V63.56q0-1.87.11-3.86l-7.8 6.52q-.68.53-1.33.66-.66.13-1.24.02t-1.03-.4q-.45-.28-.68-.62l-2.92-4.01 16.53-14.06h7.62v47.36Zm31.57-38.88-1.91 11.28q1.8-.37 3.45-.54 1.65-.17 3.19-.17 4.27 0 7.54 1.27 3.26 1.28 5.47 3.53t3.34 5.27q1.12 3.02 1.12 6.5 0 4.32-1.52 7.88-1.52 3.56-4.22 6.09-2.69 2.54-6.39 3.92-3.69 1.39-8.04 1.39-2.55 0-4.84-.53-2.29-.52-4.29-1.4-2.01-.88-3.72-2.03-1.7-1.14-3.05-2.41l2.85-3.94q.9-1.28 2.36-1.28.94 0 1.91.6.98.6 2.23 1.32 1.26.71 2.97 1.31 1.7.6 4.1.6 2.55 0 4.5-.83 1.95-.82 3.25-2.3 1.29-1.49 1.95-3.53.65-2.04.65-4.44 0-4.43-2.57-6.92-2.56-2.5-7.59-2.5-3.86 0-7.91 1.43l-5.78-1.65 4.5-26.33h26.78v3.94q0 1.99-1.24 3.23t-4.2 1.24h-14.89ZM465.905 75q0 7.09-1.52 12.32t-4.2 8.64q-2.68 3.41-6.34 5.08-3.65 1.67-7.89 1.67t-7.86-1.67q-3.62-1.67-6.28-5.08t-4.16-8.64q-1.5-5.23-1.5-12.32 0-7.13 1.5-12.34t4.16-8.62q2.66-3.42 6.28-5.09 3.62-1.66 7.86-1.66t7.89 1.66q3.66 1.67 6.34 5.09 2.68 3.41 4.2 8.62 1.52 5.21 1.52 12.34Zm-9.56 0q0-5.89-.87-9.75-.86-3.87-2.3-6.15-1.45-2.29-3.32-3.21-1.88-.92-3.9-.92-1.99 0-3.84.92-1.86.92-3.28 3.21-1.43 2.28-2.27 6.15-.85 3.86-.85 9.75 0 5.89.85 9.75.84 3.86 2.27 6.15 1.42 2.29 3.28 3.2 1.85.92 3.84.92 2.02 0 3.9-.92 1.87-.91 3.32-3.2 1.44-2.29 2.3-6.15.87-3.86.87-9.75Z"/></svg>