<svg xmlns="http://www.w3.org/2000/svg" width="847" height="70" viewBox="0 0 847 70"><rect width="100%" height="100%" fill="#DDDDDD"/><path fill="#999999" d="M363.995 44.555q1.07 0 1.88-.3.8-.31 1.35-.85.55-.55.83-1.3.29-.75.29-1.63 0-2.08-1.16-3.15-1.16-1.06-3.19-1.06-2.02 0-3.18 1.06-1.15 1.07-1.15 3.15 0 .88.28 1.63.28.75.83 1.3.55.54 1.35.85.81.3 1.87.3Zm0-19.23q-.96 0-1.66.3-.7.29-1.16.79-.47.5-.68 1.15-.22.65-.22 1.36 0 .76.18 1.47.18.7.62 1.26.44.55 1.16.88.72.33 1.76.33 1.06 0 1.77-.33.72-.33 1.16-.88.44-.56.62-1.26.18-.71.18-1.47 0-.71-.22-1.36-.23-.65-.69-1.15-.45-.5-1.15-.79-.7-.3-1.67-.3Zm4.28 9.13q2.31.76 3.41 2.31 1.1 1.54 1.1 3.78 0 1.68-.64 3.05-.64 1.36-1.79 2.33-1.16.96-2.78 1.48-1.62.53-3.58.53t-3.57-.53q-1.62-.52-2.78-1.48-1.15-.97-1.79-2.33-.64-1.37-.64-3.05 0-2.24 1.1-3.78 1.1-1.55 3.42-2.31-1.84-.77-2.76-2.18-.92-1.42-.92-3.42 0-1.43.59-2.67.58-1.25 1.63-2.16 1.05-.92 2.51-1.44 1.46-.52 3.21-.52t3.22.52q1.46.52 2.51 1.44 1.05.91 1.63 2.16.59 1.24.59 2.67 0 2-.92 3.42-.92 1.41-2.75 2.18Zm10.63 3.66h7.7v-8.28q0-1.17.16-2.59l-7.86 10.87Zm11.47 0h3.18v2.5q0 .35-.23.61-.22.25-.64.25h-2.31v6.18h-3.77v-6.18h-10.67q-.44 0-.77-.27t-.42-.67l-.46-2.19 11.99-16.01h4.1v15.78Zm5.7-15.77h17.48v1.88q0 .84-.17 1.35-.18.52-.35.87l-9.59 19.74q-.3.61-.84 1.04-.54.43-1.45.43h-3.14l9.79-19.34q.33-.59.65-1.09.33-.5.73-.96h-12.11q-.4 0-.7-.29-.3-.3-.3-.7v-2.93Zm45.59 19.52-2.29 2.25-5.94-5.93-5.98 5.97-2.29-2.26 5.98-6-5.7-5.71 2.27-2.27 5.71 5.7 5.67-5.67 2.31 2.28-5.69 5.69 5.95 5.95Zm12.02-19.52h17.49v1.88q0 .84-.18 1.35-.18.52-.35.87l-9.59 19.74q-.3.61-.84 1.04-.54.43-1.45.43h-3.13l9.78-19.34q.33-.59.65-1.09.33-.5.73-.96h-12.11q-.4 0-.7-.29-.3-.3-.3-.7v-2.93Zm38.1 12.66q0 3.3-.71 5.75-.71 2.44-1.96 4.03-1.25 1.59-2.96 2.37-1.7.78-3.68.78-1.98 0-3.67-.78-1.68-.78-2.93-2.37-1.24-1.59-1.94-4.03-.7-2.45-.7-5.75 0-3.33.7-5.76.7-2.43 1.94-4.03 1.25-1.59 2.93-2.37 1.69-.78 3.67-.78t3.68.78q1.71.78 2.96 2.37 1.25 1.6 1.96 4.03t.71 5.76Zm-4.46 0q0-2.75-.4-4.55-.41-1.81-1.08-2.87-.67-1.07-1.55-1.5-.87-.43-1.82-.43-.93 0-1.79.43-.87.43-1.53 1.5-.67 1.06-1.06 2.87-.4 1.8-.4 4.55 0 2.74.4 4.55.39 1.8 1.06 2.87.66 1.06 1.53 1.49.86.43 1.79.43.95 0 1.82-.43.88-.43 1.55-1.49.67-1.07 1.08-2.87.4-1.81.4-4.55Z"/></svg>